<svg xmlns="http://www.w3.org/2000/svg" data-name="Layer 1" viewBox="0 0 168 168"><path fill="#2d4356" d="M57.458,27.244l-5.5-3a2.00344,2.00344,0,0,0-1.916,0l-5.5,3A1.9998,1.9998,0,0,0,43.5,28.99988v6a1.9998,1.9998,0,0,0,1.042,1.75586l5.5,3a2.00168,2.00168,0,0,0,1.916,0l5.5-3A1.9998,1.9998,0,0,0,58.5,34.99988v-6A1.9998,1.9998,0,0,0,57.458,27.244ZM54.5,33.81238,51,35.72156l-3.5-1.90918v-3.625L51,28.2782l3.5,1.90918Z"/><path fill="#0bceb2" d="M27.542,48.75574l5.5,3a2.00168,2.00168,0,0,0,1.916,0l5.5-3A1.9998,1.9998,0,0,0,41.5,46.99988v-6A1.9998,1.9998,0,0,0,40.458,39.244l-5.5-3a2.00344,2.00344,0,0,0-1.916,0l-5.5,3A1.9998,1.9998,0,0,0,26.5,40.99988v6A1.9998,1.9998,0,0,0,27.542,48.75574ZM30.5,42.18738,34,40.2782l3.5,1.90918v3.625L34,47.72156l-3.5-1.90918Z"/><path fill="#2d4356" d="M110.542,36.75574l5.5,3a2.00168,2.00168,0,0,0,1.916,0l5.5-3a1.9998,1.9998,0,0,0,1.042-1.75586v-6a1.9998,1.9998,0,0,0-1.042-1.75586l-5.5-3a2.00344,2.00344,0,0,0-1.916,0l-5.5,3a1.9998,1.9998,0,0,0-1.042,1.75586v6A1.9998,1.9998,0,0,0,110.542,36.75574Zm2.958-6.56836L117,28.2782l3.5,1.90918v3.625L117,35.72156l-3.5-1.90918Z"/><path fill="#0bceb2" d="M140.458 39.244l-5.5-3a2.00344 2.00344 0 0 0-1.916 0l-5.5 3a1.9998 1.9998 0 0 0-1.042 1.75586v6a1.9998 1.9998 0 0 0 1.042 1.75586l5.5 3a2.00168 2.00168 0 0 0 1.916 0l5.5-3a1.9998 1.9998 0 0 0 1.042-1.75586v-6A1.9998 1.9998 0 0 0 140.458 39.244zM137.5 45.81238L134 47.72156l-3.5-1.90918v-3.625L134 40.2782l3.5 1.90918zM77.542 40.75574l5.5 3a2.00168 2.00168 0 0 0 1.916 0l5.5-3A1.9998 1.9998 0 0 0 91.5 38.99988v-6A1.9998 1.9998 0 0 0 90.458 31.244l-5.5-3a2.00344 2.00344 0 0 0-1.916 0l-5.5 3A1.9998 1.9998 0 0 0 76.5 32.99988v6A1.9998 1.9998 0 0 0 77.542 40.75574zM80.5 34.18738L84 32.2782l3.5 1.90918v3.625L84 39.72156l-3.5-1.90918zM40.458 127.244l-5.5-3a1.99817 1.99817 0 0 0-1.916 0l-5.5 3a2.00037 2.00037 0 0 0-1.042 1.75586v6a2.00037 2.00037 0 0 0 1.042 1.75586l5.5 3a2.00168 2.00168 0 0 0 1.916 0l5.5-3a2.00037 2.00037 0 0 0 1.042-1.75586v-6A2.00037 2.00037 0 0 0 40.458 127.244zM37.5 133.81238L34 135.72156l-3.5-1.90918v-3.625L34 128.2782l3.5 1.90918zM140.458 127.244l-5.5-3a1.99817 1.99817 0 0 0-1.916 0l-5.5 3a2.00037 2.00037 0 0 0-1.042 1.75586v6a2.00037 2.00037 0 0 0 1.042 1.75586l5.5 3a2.00168 2.00168 0 0 0 1.916 0l5.5-3a2.00037 2.00037 0 0 0 1.042-1.75586v-6A2.00037 2.00037 0 0 0 140.458 127.244zm-2.958 6.56836l-3.5 1.90918-3.5-1.90918v-3.625l3.5-1.90918 3.5 1.90918zM90.458 135.244l-5.5-3a1.99817 1.99817 0 0 0-1.916 0l-5.5 3a2.00037 2.00037 0 0 0-1.042 1.75586v6a2.00037 2.00037 0 0 0 1.042 1.75586l5.5 3a2.00168 2.00168 0 0 0 1.916 0l5.5-3a2.00037 2.00037 0 0 0 1.042-1.75586v-6A2.00037 2.00037 0 0 0 90.458 135.244zM87.5 141.81238L84 143.72156l-3.5-1.90918v-3.625L84 136.2782l3.5 1.90918z"/><path fill="#2d4356" d="M82 47.64734V58.35242a5.99031 5.99031 0 0 1 4 0V47.64734a5.8494 5.8494 0 0 1-4 0zM115 77.99988a4.00427 4.00427 0 0 0 4-4V43.64734a5.8494 5.8494 0 0 1-4 0V73.99988h-3.357a5.97521 5.97521 0 0 1 .357 2v2zM106.958 74.244l-22-12a2.00344 2.00344 0 0 0-1.916 0l-22 12A1.9998 1.9998 0 0 0 60 75.99988v24a2.00037 2.00037 0 0 0 1.042 1.75586l22 12a2.00168 2.00168 0 0 0 1.916 0l22-12A2.00037 2.00037 0 0 0 108 99.99988v-24A1.9998 1.9998 0 0 0 106.958 74.244zM104 98.81238L84 109.72156 64 98.81238v-21.625L84 66.2782l20 10.90918z"/><path fill="#0bceb2" d="M79.02832,73.25134l-9,5A2.00039,2.00039,0,0,0,69,79.99988v9a2,2,0,0,0,4,0V81.17664l7.97168-4.42822a2.00038,2.00038,0,0,0-1.94336-3.49707Z"/><path fill="#2d4356" d="M51,43.99988a5.99653,5.99653,0,0,1-2-.35254V73.99988a4.00427,4.00427,0,0,0,4,4h3v-2a5.97526,5.97526,0,0,1,.35706-2H53V43.64734A5.99626,5.99626,0,0,1,51,43.99988Z"/><path fill="#2d4356" d="M36 79.99988V55.64734a5.8494 5.8494 0 0 1-4 0V79.99988a6.00656 6.00656 0 0 0 6 6H56v-4H38A2.00229 2.00229 0 0 1 36 79.99988zM136 55.64734a5.8494 5.8494 0 0 1-4 0V79.99988a2.00229 2.00229 0 0 1-2 2H112v4h18a6.00656 6.00656 0 0 0 6-6zM134 119.99988a5.99626 5.99626 0 0 1 2 .35254V95.99988a6.00656 6.00656 0 0 0-6-6H112v4h18a2.00261 2.00261 0 0 1 2 2v24.35254A5.99653 5.99653 0 0 1 134 119.99988zM56 89.99988H38a6.00656 6.00656 0 0 0-6 6v24.35254a5.8494 5.8494 0 0 1 4 0V95.99988a2.00261 2.00261 0 0 1 2-2H56z"/><path fill="#2d4356" d="M117 131.99988a5.99626 5.99626 0 0 1 2 .35254V101.99988a4.004 4.004 0 0 0-4-4h-3v2a5.97428 5.97428 0 0 1-.35706 2H115v30.35254A5.99653 5.99653 0 0 1 117 131.99988zM86 128.35242V117.64734a5.8494 5.8494 0 0 1-4 0v10.70508a5.8494 5.8494 0 0 1 4 0zM53 132.35242V101.99988h3.35712a5.97433 5.97433 0 0 1-.35712-2v-2H53a4.004 4.004 0 0 0-4 4v30.35254a5.8494 5.8494 0 0 1 4 0z"/><circle cx="2" cy="150" r="2" fill="#2d4356"/><path fill="#2d4356" d="M11 148H8a2 2 0 0 0 0 4h3a2 2 0 0 0 0-4zM160 148h-3a2 2 0 0 0 0 4h3a2 2 0 0 0 0-4z"/><circle cx="166" cy="150" r="2" fill="#2d4356"/><path fill="#0bceb2" d="M118.15387 156h-8.30774a2.00641 2.00641 0 0 0 0 4h8.30774a2.00641 2.00641 0 0 0 0-4zM58.15387 156H49.84613a2.00641 2.00641 0 0 0 0 4h8.30774a2.00641 2.00641 0 0 0 0-4zM104 156H64a2 2 0 0 0 0 4H79.94v2H72a2 2 0 0 0 0 4H97a2 2 0 0 0 0-4H88.06v-2H104a2 2 0 0 0 0-4z"/><path fill="#2d4356" d="M150.72131 148H124.22876a1.99676 1.99676 0 0 0 .27124-1.00012v-6a2.00037 2.00037 0 0 0-1.042-1.75586l-5.5-3a1.99817 1.99817 0 0 0-1.916 0l-5.5 3a2.00037 2.00037 0 0 0-1.042 1.75586v6A1.99676 1.99676 0 0 0 109.77124 148H58.22876A1.99676 1.99676 0 0 0 58.5 146.99988v-6a2.00037 2.00037 0 0 0-1.042-1.75586l-5.5-3a1.99817 1.99817 0 0 0-1.916 0l-5.5 3a2.00037 2.00037 0 0 0-1.042 1.75586v6A1.99676 1.99676 0 0 0 43.77124 148H17.27869a2.017 2.017 0 1 0 0 4H150.72131a2.017 2.017 0 1 0 0-4zM113.5 142.18738l3.5-1.90918 3.5 1.90918v3.625l-3.5 1.90918-3.5-1.90918zm-66 0L51 140.2782l3.5 1.90918v3.625L51 147.72156l-3.5-1.90918zM93.30471 22.79788a3 3 0 1 0-3-3A3.00344 3.00344 0 0 0 93.30471 22.79788zm0-4.5a1.5 1.5 0 1 1-1.5 1.5A1.50148 1.50148 0 0 1 93.30471 18.29788zM163.02886 56.35242a2 2 0 1 0 2 2A2.00229 2.00229 0 0 0 163.02886 56.35242zm0 3a1 1 0 1 1 1-1A1.001 1.001 0 0 1 163.02886 59.35242zM137.5 2.55021a2 2 0 1 0 2 2A2.00229 2.00229 0 0 0 137.5 2.55021zm0 3a1 1 0 1 1 1-1A1.001 1.001 0 0 1 137.5 5.55021zM149.8564 39.72156a2 2 0 1 0 2 2A2.00229 2.00229 0 0 0 149.8564 39.72156zm0 3a1 1 0 1 1 1-1A1.001 1.001 0 0 1 149.8564 42.72156zM22.5 30a2 2 0 1 0-2 2A2.00229 2.00229 0 0 0 22.5 30zm-3 0a1 1 0 1 1 1 1A1.001 1.001 0 0 1 19.5 30z"/><polygon fill="#0bceb2" points="10.888 69.011 12.375 67.056 11.436 66.524 10.481 68.714 10.45 68.714 9.48 66.539 8.525 67.087 9.996 68.996 9.996 69.027 7.695 68.73 7.695 69.794 10.011 69.497 10.011 69.528 8.525 71.436 9.416 72 10.434 69.794 10.465 69.794 11.404 71.984 12.39 71.421 10.888 69.543 10.888 69.512 13.25 69.794 13.25 68.73 10.888 69.042 10.888 69.011"/><polygon fill="#0bceb2" points="3.639 12.153 2.783 13.252 3.297 13.577 3.883 12.306 3.9 12.306 4.441 13.568 5.009 13.243 4.144 12.162 4.144 12.144 5.504 12.306 5.504 11.694 4.144 11.874 4.144 11.856 5 10.73 4.459 10.423 3.91 11.684 3.891 11.684 3.333 10.432 2.783 10.747 3.63 11.847 3.63 11.865 2.305 11.694 2.305 12.306 3.639 12.135 3.639 12.153"/><polygon fill="#0bceb2" points="165.753 18.819 165.753 17.776 163.436 18.083 163.436 18.052 164.895 16.134 163.974 15.612 163.038 17.76 163.006 17.76 162.055 15.627 161.118 16.164 162.561 18.037 162.561 18.068 160.305 17.776 160.305 18.819 162.576 18.528 162.576 18.559 161.118 20.431 161.993 20.984 162.991 18.819 163.021 18.819 163.942 20.968 164.909 20.416 163.436 18.574 163.436 18.543 165.753 18.819"/><polygon fill="#0bceb2" points="56.708 4.338 57.966 2.684 57.172 2.233 56.365 4.086 56.338 4.086 55.517 2.246 54.709 2.71 55.954 4.325 55.954 4.352 54.007 4.1 54.007 5 55.967 4.749 55.967 4.775 54.709 6.39 55.464 6.867 56.325 5 56.351 5 57.145 6.853 57.979 6.377 56.708 4.788 56.708 4.762 58.707 5 58.707 4.1 56.708 4.365 56.708 4.338"/></svg>